<svg xmlns="http://www.w3.org/2000/svg" viewBox="0 0 720 470" font-family="'JetBrains Mono', ui-monospace, monospace" role="img" aria-label="Shoot-on-the-move vector diagram. The robot moves with a velocity vector. A dashed line points to the real goal. The compensated aim point is offset from the goal by the lead vector, which equals velocity times time of flight, opposite to the direction of motion. The solid line from the robot to the compensated aim point is where the robot actually shoots.">
  <defs>
    <pattern id="grid" width="40" height="40" patternUnits="userSpaceOnUse">
      <path d="M40 0H0V40" fill="none" stroke="#233049" stroke-width="1" opacity="0.5"/>
    </pattern>
    <marker id="arrowAmber" markerWidth="10" markerHeight="10" refX="7" refY="3" orient="auto" markerUnits="userSpaceOnUse">
      <path d="M0,0 L8,3 L0,6 Z" fill="#f4b860"/>
    </marker>
    <marker id="arrowTeal" markerWidth="10" markerHeight="10" refX="7" refY="3" orient="auto" markerUnits="userSpaceOnUse">
      <path d="M0,0 L8,3 L0,6 Z" fill="#3dd6c4"/>
    </marker>
  </defs>

  <!-- background -->
  <rect width="720" height="470" fill="#0f1626"/>
  <rect width="720" height="470" fill="url(#grid)"/>

  <!-- naive line: robot -> real goal -->
  <line x1="170" y1="350" x2="580" y2="120" stroke="#5e6c86" stroke-width="1.5" stroke-dasharray="5 6"/>
  <text x="350" y="252" fill="#5e6c86" font-size="12" transform="rotate(-29 350 252)">line to real goal</text>

  <!-- lead vector: goal -> compensated aim  (= -v * TOF) -->
  <line x1="580" y1="120" x2="464" y2="149" stroke="#3dd6c4" stroke-width="2" marker-end="url(#arrowTeal)" opacity="0.85"/>
  <text x="408" y="104" fill="#3dd6c4" font-size="12.5">lead = v &#215; TOF(d)</text>

  <!-- actual shot: robot -> compensated aim -->
  <line x1="170" y1="350" x2="464" y2="149" stroke="#3dd6c4" stroke-width="2.5" marker-end="url(#arrowTeal)"/>
  <text x="250" y="230" fill="#3dd6c4" font-size="12.5" transform="rotate(-34 250 230)">where to shoot</text>

  <!-- velocity vector at robot -->
  <line x1="170" y1="350" x2="247" y2="331" stroke="#f4b860" stroke-width="2.5" marker-end="url(#arrowAmber)"/>
  <text x="200" y="375" fill="#f4b860" font-size="13" font-weight="700">v</text>
  <text x="214" y="375" fill="#93a0b8" font-size="11.5">(robot velocity)</text>

  <!-- GOAL marker -->
  <circle cx="580" cy="120" r="16" fill="rgba(244,184,96,0.18)" stroke="#f4b860" stroke-width="2"/>
  <circle cx="580" cy="120" r="4" fill="#f4b860"/>
  <text x="602" y="118" fill="#f4b860" font-size="13" font-weight="700">GOAL</text>
  <text x="602" y="134" fill="#93a0b8" font-size="11">real target</text>

  <!-- compensated aim marker -->
  <circle cx="464" cy="149" r="11" fill="none" stroke="#3dd6c4" stroke-width="1" opacity="0.5"/>
  <circle cx="464" cy="149" r="5" fill="#3dd6c4"/>
  <text x="436" y="178" fill="#3dd6c4" font-size="12.5" font-weight="700">aim</text>
  <text x="436" y="193" fill="#93a0b8" font-size="11">compensated point</text>

  <!-- robot marker -->
  <g transform="translate(170 350) rotate(-14)">
    <rect x="-15" y="-15" width="30" height="30" rx="3" fill="rgba(61,214,196,0.18)" stroke="#3dd6c4" stroke-width="2"/>
    <path d="M15 0 L4 -7 L4 7 Z" fill="#3dd6c4"/>
  </g>
  <text x="120" y="392" fill="#93a0b8" font-size="11.5">robot (no turret)</text>

  <!-- caption -->
  <text x="32" y="438" fill="#e6ebf4" font-size="13">
    Because the ball is in the air for TOF seconds, the robot aims
  </text>
  <text x="32" y="456" fill="#e6ebf4" font-size="13">
    <tspan fill="#3dd6c4">opposite its own motion</tspan> so the moving ball drifts into the goal.
  </text>
</svg>
